<?xml version="1.0" encoding="utf-8"?>
<!-- Generator: Adobe Illustrator 26.0.3, SVG Export Plug-In . SVG Version: 6.00 Build 0)  -->
<svg version="1.1" id="Layer_1" xmlns="http://www.w3.org/2000/svg" xmlns:xlink="http://www.w3.org/1999/xlink" x="0px" y="0px"
	 viewBox="0 0 100.6 100.6" style="enable-background:new 0 0 100.6 100.6;" xml:space="preserve">
<style type="text/css">
	.st0{fill-rule:evenodd;clip-rule:evenodd;}
	.st1{fill:#FFFFFF;}
	.st2{fill-rule:evenodd;clip-rule:evenodd;fill:#FFDD2D;}
</style>
<path class="st0" d="M80.8,100.6H19.8C8.9,100.6,0,91.7,0,80.8V19.8C0,8.9,8.9,0,19.8,0h60.9c11,0,19.8,8.9,19.8,19.8v60.9
	C100.6,91.7,91.7,100.6,80.8,100.6z"/>
<g>
	<path class="st1" d="M53,58.8c0,2.2,2.3,2.6,4.2,2.6c1.7,0,2.8-0.1,3.8-0.3v9.1c-2.2,0.4-5.9,0.6-8.1,0.6
		c-6.8,0-11.5-2.3-11.5-10.9V43.8h-4.6v-9.2h4.6v-8.2H53v8.2h8v9.2h-8V58.8z"/>
</g>
</svg>
