<?xml version="1.0" encoding="utf-8"?>
<!-- Generator: Adobe Illustrator 26.0.3, SVG Export Plug-In . SVG Version: 6.00 Build 0)  -->
<svg version="1.1" id="Layer_1" xmlns="http://www.w3.org/2000/svg" xmlns:xlink="http://www.w3.org/1999/xlink" x="0px" y="0px"
	 viewBox="0 0 326.1 100.6" style="enable-background:new 0 0 326.1 100.6;" xml:space="preserve">
<style type="text/css">
	.st0{fill-rule:evenodd;clip-rule:evenodd;}
	.st1{fill:#FFFFFF;}
	.st2{fill-rule:evenodd;clip-rule:evenodd;fill:#FFDD2D;}
</style>
<path class="st2" d="M306.2,100.6H19.8C8.9,100.6,0,91.7,0,80.8V19.8C0,8.9,8.9,0,19.8,0h286.4c11,0,19.8,8.9,19.8,19.8v60.9
	C326.1,91.7,317.2,100.6,306.2,100.6z"/>
<g>
	<path d="M53,58.8c0,2.2,2.3,2.6,4.2,2.6c1.7,0,2.8-0.1,3.8-0.3v9.1c-2.2,0.4-5.9,0.6-8.1,0.6c-6.8,0-11.5-2.3-11.5-10.9V43.8h-4.6
		v-9.2h4.6v-8.2H53v8.2h8v9.2h-8V58.8z"/>
	<path d="M89.2,32.8c0.4,0,1.8,0,2.5,0.1V44h-1.3c-1.3-0.7-2.7-0.9-3.9-0.9c-3.5,0-6.9,2.4-6.9,12.5v14.5H68.1V33.9h11.6v0.4
		c0,1.4-0.4,3.1-0.8,4.8l1.1,0.5C82,35.7,85.1,32.8,89.2,32.8z"/>
	<path d="M93.2,61c0-12,12.3-13.3,21.5-13.7v-2.5c0-3.2-1.7-5-5.2-5c-4.4,0-5.7,2.8-5.1,5.9h-9.6c-0.9-6.6,3-12.7,15.8-12.7
		c12.7,0,15.6,5.1,15.6,12.7v24.5H115v-0.4c0-1.3,0.6-3.2,1.1-4.9l-0.9-0.5c-1.8,3.7-5,6.8-11.4,6.8C97,71.1,93.2,65.9,93.2,61z
		 M114.7,55.2v-2.6c-8.4,0.3-10.9,2.8-10.9,6.2c0,2.8,2.1,4.8,5.1,4.8C113.2,63.6,114.7,59.5,114.7,55.2z"/>
	<path d="M166.3,39.6l1.1,0.3c2.3-4.2,5.6-7,10.2-7c6,0,11,2.7,11,13.1v24.1H177V48.7c0-4.4-1.3-6-4.2-6c-3.3,0-5.6,3-5.6,9.2v18.3
		h-11.6V48.7c0-4.4-1.4-6.1-4.2-6.1c-3.3,0-5.6,3-5.6,9.3v18.1h-11.6V33.9h11.6v0.4c0,1.3-0.3,3.2-0.8,4.9l1.1,0.5
		c2.2-3.8,5.4-6.9,10.6-6.9C160.7,32.9,165.6,34.6,166.3,39.6z"/>
	<path d="M214.1,48.9l3.5-14.9h11.4l-9.9,36.2h-16.4l-9.9-36.2h11.6l3.3,14.4c1.5,6.5,2.4,11,2.7,13.7h1.1
		C211.9,59.1,212.7,54.8,214.1,48.9z"/>
	<path d="M231.5,61c0-12,12.3-13.3,21.5-13.7v-2.5c0-3.2-1.7-5-5.2-5c-4.4,0-5.7,2.8-5.1,5.9h-9.6c-0.9-6.6,3-12.7,15.8-12.7
		c12.7,0,15.6,5.1,15.6,12.7v24.5h-11.2v-0.4c0-1.3,0.6-3.2,1.1-4.9l-0.9-0.5c-1.8,3.7-5,6.8-11.4,6.8
		C235.3,71.1,231.5,65.9,231.5,61z M253,55.2v-2.6c-8.4,0.3-10.9,2.8-10.9,6.2c0,2.8,2.1,4.8,5.1,4.8C251.5,63.6,253,59.5,253,55.2z
		"/>
	<path d="M271.8,27.4c0-3,2.9-5.4,6.7-5.4c3.8,0,6.8,2.4,6.8,5.4c0,3-3,5.4-6.8,5.4C274.7,32.8,271.8,30.3,271.8,27.4z M278.5,34.9
		c2,0,3.9-0.3,5.9-1v36.2h-11.6V33.9C274.5,34.6,276.5,34.9,278.5,34.9z"/>
</g>
</svg>
