<svg xmlns="http://www.w3.org/2000/svg" width="150" height="34" fill="none"><path fill-rule="evenodd" clip-rule="evenodd" d="M37.507 15.903L38 14.322l-1.632.052c-.137 0-1.14-.03-2.111-.735.073.006.144.017.22.017 1 0 1.969-.604 2.356-1.468l.702-1.56c-.88.012-1.685-.099-1.685-.099-.007 0-.641-.083-1.374-.834-.526-.537-1.177-.822-1.882-.822a2.71 2.71 0 00-.822.131c.037-.126.072-.255.093-.387.223-1.46-.714-2.572-.714-2.572l-1.227-1.522-.761 1.788c-.003.006-.195.426-.538.63-.104-.526-.359-1.117-.903-1.682-1.027-1.064-2.276-1.224-2.93-1.224-.303 0-.52.034-.572.042l-1.481.292c.085-.331.268-.91.6-1.429l.818-1.275L22.1 1.9 21.445.506l-1.269.655L19.003 0l-1.17 1.16-1.271-.654-.654 1.393-2.056-.235.819 1.277c.333.519.514 1.095.599 1.426l-1.413-.28-.049-.007a3.696 3.696 0 00-.59-.045c-.654 0-1.903.16-2.927 1.224-.545.564-.801 1.156-.905 1.682-.341-.203-.532-.615-.532-.615l-.762-1.8L6.845 6.06c-.152.197-.903 1.243-.7 2.56.022.131.056.259.093.385a2.679 2.679 0 00-.82-.131c-.706 0-1.357.285-1.884.822-.73.748-1.361.833-1.356.833 0 0-.667.12-1.7.1l.699 1.56c.388.864 1.358 1.468 2.356 1.468.076 0 .147-.011.221-.017-.97.706-1.972.735-2.093.735L0 14.322l.503 1.58c.254.816 1.1 2.165 2.72 2.31-.176.74-.567 1.57-1.425 1.928l-1.238.51.675 1.178c.381.635 1.276 1.378 2.549 1.378.275 0 .541-.029.798-.083.065.29.147.58.244.87.378 1.13.052 1.918.048 1.927l-.61 1.282 1.363.36c.017.006.43.12.945.12.234 0 .458-.025.668-.075.158-.037.31-.087.457-.146.177.317.391.607.641.866.874.899 2.114 1.354 3.682 1.354h.005l1.12-.015-2.314.964 1.757.851c.639.312 1.395.68 2.167.962l-.22.601.605.277c.054.025 1.22.546 3.155.657 0 0 .467.022.724.022.258 0 .72-.023.72-.023 1.922-.114 3.078-.631 3.132-.656l.607-.277-.221-.602c.792-.29 1.577-.674 2.19-.973l1.724-.84-2.307-.963 1.125.015c1.57 0 2.81-.456 3.683-1.355.249-.258.462-.547.64-.865a2.899 2.899 0 001.126.22c.507 0 .924-.112.935-.116l1.37-.363-.597-1.259c-.014-.032-.34-.82.038-1.952.097-.288.178-.579.244-.868.257.054.526.082.803.083 1.622 0 2.4-1.143 2.55-1.391l.669-1.166-1.238-.509c-.86-.357-1.25-1.187-1.424-1.926 1.599-.14 2.456-1.49 2.72-2.31z" fill="#FFFFFE"/><path fill-rule="evenodd" clip-rule="evenodd" d="M19.003 4.843c-1.31.001-2.293.431-2.507.938l2.507.99 2.508-.99c-.212-.507-1.195-.937-2.508-.938zM19.03 31.082h-.05c-.794.005-1.889-.158-2.415-.313l-.634 1.719c.418.149 1.834.435 3.075.435 1.239 0 2.656-.286 3.073-.435l-.633-1.718c-.529.154-1.622.317-2.416.312zM23.827 29.372c-.472.268-1.525.67-2.138.856l.514 1.42c.948-.26 1.731-.563 2.377-.888l-1.068-.355.315-1.033zM14.182 29.372l.316 1.033-1.069.355c.645.325 1.431.628 2.376.887l.515-1.42c-.612-.186-1.667-.587-2.138-.855zM19.003 3.2c.989 0 1.957.237 2.703.652.068-.228.163-.506.292-.797l-.282.034-.295.03-.125-.269-.378-.797-.686.358-.268.136-.214-.21-.747-.74-.745.74-.213.21-.267-.136-.69-.358-.373.797-.127.27-.296-.031-.28-.034c.129.291.223.569.292.797.748-.415 1.716-.652 2.7-.652zM34.088 12.417c.129.044.259.064.388.064.56 0 1.1-.363 1.285-.777 0 0-1.025-.062-2.127-1.183-.35-.362-.722-.471-1.04-.471-.495 0-.867.261-.867.261 1.332.71 1.603 1.85 2.361 2.106zM3.533 12.48c.13 0 .26-.019.385-.064.76-.256 1.034-1.395 2.363-2.104 0 0-.372-.262-.864-.262-.32 0-.691.108-1.043.472-1.101 1.12-2.125 1.183-2.125 1.183.184.413.725.776 1.284.776z" fill="#FFFFFE"/><path fill-rule="evenodd" clip-rule="evenodd" d="M33.687 20.595c-1.03-.51-1.68-1.86-1.838-2.346-.17 2.678-1.475 4.536-3 6.324-.792.928-1.068 1.83-1.068 1.83s.153-1.022.837-1.854c1.423-1.712 2.775-3.844 2.876-6.31.069-1.72-.372-3.115-1.062-4.265.386 1.197.331 2.664-.978 4.033 0 0 2.607-3.128-1.037-6.336-1.458-1.22-3.054-1.974-3.875-2.508 2.967.97 4.417-.098 4.417-.098-.948.823-2.175.809-2.936.69.207.101.422.207.652.33 2.503 1.362 4.751 3.603 5.135 6.705v-.024c.581 3.047 1.877 3.829 1.877 3.829zm.762-3.55c.023.002.043.002.066.002 1.395 0 1.867-1.497 1.867-1.497h-.027c-.256 0-2.33-.06-3.796-1.927-.964-1.227-1.755-2.306-3.317-2.73l-.154-.028-.033-.157c-.043-.239.12-.463.492-.704 2.155-1.414.69-3.218.69-3.218s-.614 1.442-1.991 1.442l-.103-.002c-.156-.008-.307-.013-.459-.046l-.254-.05s.393-1.07-.555-2.051c-.713-.742-1.582-.868-2.083-.868-.253 0-.413.033-.413.033.476.623.82 1.658.27 2.296-.475.548-1.635.575-1.635 1.393 0 .346.323.75.903 1.113 1.744 1.1 3.475 2.56 4.195 4.517.9 2.44-.114 4.06-1.56 4.989 0 0 .454.418 1.111.472.134.013.265.019.387.019 1.389 0 2.107-.653 2.107-.653s-.119.902-.84 1.739c-.668.772-1.543 1.228-2.878 1.247 0 0-.042.62.549 1.158.379.339 1.252.45 1.252.45s-1.636.331-1.817 2.752c-.098 1.312-.432 1.767-.432 1.767h.029c3.796 0 3.699-3.262 3.699-3.262s.264.966 1.323 1.218c.128.034.265.047.395.047.34 0 .637-.08.637-.08s-.555-1.172-.005-2.811c.457-1.361.383-2.369.383-2.369s.511.775 1.78.782h.013a1.782 1.782 0 001.516-.802c-2.531-1.053-2.281-4.45-2.281-4.45s.328.246.969.27zM9.16 24.573c-1.525-1.788-2.83-3.646-3.002-6.324-.157.487-.806 1.837-1.835 2.346 0 0 1.294-.782 1.875-3.829v.024c.385-3.102 2.633-5.343 5.136-6.704.23-.125.446-.23.651-.33-.76.118-1.988.132-2.935-.69 0 0 1.45 1.067 4.416.097-.82.534-2.416 1.288-3.873 2.508-3.645 3.208-1.038 6.336-1.038 6.336-1.31-1.37-1.364-2.835-.978-4.033-.69 1.15-1.132 2.545-1.06 4.266.099 2.465 1.45 4.597 2.87 6.31.688.83.843 1.852.843 1.852s-.28-.901-1.07-1.829zm.61-.59s.873-.11 1.252-.45c.59-.537.549-1.157.549-1.157-1.336-.019-2.21-.475-2.881-1.247-.718-.837-.838-1.739-.838-1.739s.718.653 2.105.653c.125 0 .255-.006.388-.019a2.048 2.048 0 001.114-.472c-1.448-.929-2.462-2.549-1.563-4.99.72-1.955 2.45-3.416 4.196-4.517.579-.362.901-.766.901-1.112 0-.818-1.158-.845-1.633-1.393-.55-.638-.205-1.673.27-2.296 0 0-.159-.033-.413-.033-.5 0-1.369.126-2.083.868-.95.982-.555 2.052-.555 2.052l-.254.05c-.151.031-.304.037-.46.046l-.1.001c-1.38 0-1.993-1.441-1.993-1.441s-1.463 1.803.692 3.217c.37.241.533.466.49.704l-.033.156-.157.028c-1.559.425-2.35 1.504-3.316 2.731C3.982 15.49 1.91 15.55 1.653 15.55h-.028s.473 1.497 1.869 1.497c.022 0 .042 0 .066-.002.641-.023.97-.269.97-.269s.248 3.397-2.282 4.45c0 0 .461.803 1.517.803h.012c1.27-.008 1.78-.783 1.78-.783s-.074 1.009.381 2.369c.55 1.64-.002 2.81-.002 2.81s.295.08.636.08c.132 0 .267-.012.394-.046 1.058-.252 1.323-1.218 1.323-1.218s-.097 3.262 3.7 3.262h.028s-.333-.455-.43-1.767c-.18-2.42-1.818-2.753-1.818-2.753zM18.147 11.963h1.79v.615c-.21-.258-.62-.205-.62-.205v.887s.014.436.168.625h-.886c.155-.189.168-.625.168-.625v-.887s-.408-.053-.62.205v-.615zm-1.95.092c.062.067.123.14.182.213.014.017.027.032.041.052.055.072.11.15.163.228l.036.053c.063.096.123.195.183.298.548.947 1.424 1.513 2.201 1.514.779-.001 1.654-.567 2.203-1.514.061-.105.122-.207.186-.303a4.373 4.373 0 01.234-.325c.061-.076.124-.15.188-.218.011-.01.02-.021.031-.03.28-.286.611-.504 1.047-.625l-.194-.113h-.01l-.772-.448-.791-.455-2.116 1.154-.006-.005-.003.005-2.116-1.154-.792.455-.772.448h-.009l-.195.113c.435.12.767.336 1.047.623.012.01.02.024.034.034z" fill="#FFFFFE"/><path fill-rule="evenodd" clip-rule="evenodd" d="M18.33 8.053v.58l-.111-.052c-.005-.004-.169-.04-.452-.266-.469-.364-.478-.7-.478-.7l1.04.438zm.49 2.717V7.168l-2.288-.778.604 3.49 1.685.89zM19.68 8.053l1.04-.438s-.008.336-.479.7c-.283.225-.446.262-.451.266l-.11.051v-.579zm1.193 1.828l.601-3.49-2.287.777v3.602l1.686-.89zM15.584 19.12c.223.08.493.097.632.097.005-.017.013-.038.02-.064.011-.04.023-.082.032-.126.039-.2.052-.425.056-.571a.802.802 0 01-.301-.318c-.085-.179-.206-.263-.383-.263-.23 0-.477.14-.584.204-.084.498.283.95.528 1.04zM20.646 17.209c-.424.463-1.257 1.27-1.297 1.31l-.05.05-2.63-.041a2.73 2.73 0 01-.084.645l-.021.083 3.127.564c.325-.228 1.22-.883 1.568-1.14-.253-.37-.277-.809-.22-1.117a1.565 1.565 0 01-.393-.354z" fill="#FFFFFE"/><path fill-rule="evenodd" clip-rule="evenodd" d="M21.003 14.041c-.606.602-1.187.825-1.706.877a2.75 2.75 0 01-.286.016h-.013a2.722 2.722 0 01-.568-.06c-.034.135-.077.418.046.686.11.243.333.424.659.545l.11.043.001.118c0 .035.026.801.86 1.014.136-.14.26-.267.35-.374-.17-.401-.08-.811.167-1.012-.01.043-.12 1.048.685 1.422l.133.063-.04.141c-.013.043-.281 1.016.694 1.378l.172.066-.077.167c-.017.037-.399.92.501 1.422h1.951V19c-.694-.085-.987-.644-1.063-1.04-.323-.055-.572-.194-.743-.421-.41-.54-.058-1.035-.053-1.062-.001.004 0 .53.324.856.161.156.351.278.64.305l.141.013.012.145c.003.031.08.744.742.856l-.001-3.17c0-.492.143-.986.315-1.442h-3.953zM15.75 15.494l-.052 2.018.23.036.56-1.937-.285-.596-.452.479zM16.964 22.968a.113.113 0 01-.109-.123.114.114 0 01.123-.107c.066.003.112.06.11.122a.117.117 0 01-.124.108zm4.962 1.787c.017 0 .037.002.055.007.35.1.437 1.358 1.048 1.47.06.013.116.016.164.016.177 0 .282-.075.396-.21 0 0-.308-.483-.538-.81-.305-.428-.542-.945-1.111-.945-.014 0-.03 0-.045.002a.566.566 0 00-.302.102 1.175 1.175 0 00-.64-.195c-.355 0-.633.164-.772.164h-.005l-1.27-.126c-.199-.02-.356-.22-.413-.298l-.022-.034c0-.035 0-.07-.002-.101-.043-1.041-.847-1.486-1.134-1.494 0 0 .034-.198-.043-.273l-.28.34-.92-.462.656.768-.555.625c-.07.071-.061.167-.032.208l.24.212.304-.185c.015-.011.043-.015.077-.015.084 0 .21.022.323.022.125 0 .232-.026.245-.143-.038.386-.396 1.057-.161 1.584l.174.398-1.123-.162-.526.889c-.162.296-.188.616-.032.79l.197.247s.276-.293.337-.486l-.089-.098c-.075-.083-.071-.157-.025-.246l.33-.548 1.325.313.07-.12c.09-.15.22-.194.362-.194.059 0 .119.007.181.017.246.049.651.114 1.056.114.445 0 .886-.08 1.121-.343.48.713 1.454.826 1.377 1.189l-.256 1.222c.17-.008.333-.019.488-.04l.244-1.271a7.29 7.29 0 00.052-.325c-.094-.096-.321-.297-.45-.542-.171-.331-.078-.504-.238-.934 0 0 .05-.1.162-.1z" fill="#FFFFFE"/><path fill-rule="evenodd" clip-rule="evenodd" d="M15.153 25.91s.44-.18.48-.31l-.06-.146c-.041-.096-.036-.2.045-.256l.474-.329.793.153s-.144-.18-.13-.42l-.756-.16-.714.435a.694.694 0 00-.227.825l.095.209zM20.76 27.982c.141-.006.299-.008.47-.008 0 0 .408-1.195.431-1.233a9.957 9.957 0 01-.886-.469c.121.182.415.389.357.549l-.372 1.161z" fill="#FFFFFE"/><path fill-rule="evenodd" clip-rule="evenodd" d="M24.642 20.895H13.367v4.249c0 1.738 1.255 2.825 3.108 2.825 1.547 0 1.955.06 2.53.633.397-.397.725-.544 1.4-.6l.015-.065.355-1.101c-.02-.025-.6-.686-.6-.686-.23.077-.424.09-.75.09-.333 0-.71-.04-1.119-.116a.519.519 0 00-.117-.014c-.05 0-.053.004-.067.029l-.07.117-.13.214-.243-.057-1.082-.255-.149.245.023.027.131.145-.058.19c-.08.247-.338.536-.417.616l-.27.29-.247-.311-.185-.233c-.195-.218-.24-.552-.13-.902a.021.021 0 01-.011.004l-.305.127-.137-.3-.097-.211a1.034 1.034 0 01.343-1.247l.87-.493.83.163c.02-.08.05-.364.073-.437-.016-.002-.031-.005-.047-.005l-.478.178-.46-.318s-.18-.174-.017-.348l.445-.677-1.13-1.42 1.737.714.116-.143.234-.282.266.254a.506.506 0 01.14.251c.478.187 1.336.738 1.412 1.634l-.268.107v.007c.061.073.112.103.128.106l1.24.122c.032-.006.07-.02.114-.032.155-.053.386-.13.66-.13.224 0 .44.052.647.15.077-.03.17-.051.28-.058l.06-.002c.663 0 .993.497 1.258.894.044.069.088.133.134.197.232.328.535.807.547.828l.137.213-.168.196c-.128.15-.323.325-.655.325a1.2 1.2 0 01-.224-.023.95.95 0 01-.198-.061 5.057 5.057 0 01-.035.211l-.217 1.137c1.3-.32 2.126-1.304 2.126-2.712l-.003-4.249zM13.367 20.553h8.77c-.438-.454-.431-1.027-.32-1.4a1.446 1.446 0 01-.327-.216c-.343.253-1.389 1.016-1.662 1.208l-.059.04-3.442-.624h-.07c-.082 0-.203-.003-.335-.02a.335.335 0 01-.6.121.335.335 0 01-.06-.253l.013-.075c-.354-.25-.683-.81-.537-1.4l.014-.062.05-.036a1.94 1.94 0 01.156-.096l-.25-.04a.173.173 0 01-.142-.195c.016-.094.103-.16.196-.143l.595.094.055-2.101.886-.94.554 1.167-.584 2.022.526.083a.172.172 0 01.142.197.169.169 0 01-.168.142l-.027-.001-.429-.07c.006.014.014.021.02.035a.47.47 0 00.206.19l2.623.043c.111-.109.386-.379.67-.665a1.417 1.417 0 01-.92-1.173c-.36-.154-.61-.384-.748-.684-.168-.372-.108-.744-.063-.925-.35-.127-.718-.361-1.094-.735h-3.952c.17.456.313.95.313 1.441v5.07z" fill="#FFE52B"/><path fill-rule="evenodd" clip-rule="evenodd" d="M16.978 22.738a.114.114 0 00-.123.108.113.113 0 00.109.122.117.117 0 00.124-.107.117.117 0 00-.11-.123zM22.204 31.648l-.515-1.42c.613-.187 1.666-.589 2.139-.856l-.315 1.033 1.067.355c-.646.324-1.428.627-2.376.887zm-3.198 1.275c-1.241 0-2.657-.286-3.075-.435l.634-1.718c.526.154 1.62.317 2.415.312h.05c.794.005 1.887-.159 2.416-.312l.633 1.718c-.418.15-1.834.435-3.073.435zM13.43 30.76l1.068-.355-.316-1.033c.471.267 1.527.67 2.138.856l-.515 1.42c-.945-.26-1.73-.564-2.375-.888zm11.198-.315l-.65-.25.18-.672.197-.733s-1.15.626-2.773 1.095c-.46.132-.808.193-.808.193v.499s-.868.15-1.744.15h-.05c-.878 0-1.744-.15-1.744-.15v-.5s-.349-.06-.809-.192c-1.621-.47-2.771-1.095-2.771-1.095l.194.733.184.672-.652.25-.723.27c.828.401 1.976.984 3.026 1.272l-.247.678s1.332.608 3.551.614v.001h.03v-.001c2.222-.006 3.554-.614 3.554-.614l-.25-.678c1.051-.288 2.201-.87 3.025-1.272l-.72-.27zM16.293 3.088l.295.032.127-.27.372-.797.69.358.268.137.958-.952.747.74.214.212.268-.137.686-.358.378.797.125.27.295-.032.282-.033c-.129.291-.224.568-.293.798-.745-.417-1.713-.653-2.701-.653-.984 0-1.952.236-2.7.653a6.83 6.83 0 00-.292-.798l.28.033zm2.71.527c1.323 0 2.38.44 2.965.907 0 0 .174-1.047.766-1.97l-1.065.12-.557-1.185-1.07.553-1.039-1.028-1.035 1.028-1.072-.553-.556 1.186-1.065-.122c.593.924.766 1.97.766 1.97.588-.467 1.642-.906 2.962-.906zM35.761 21.226s-.46.803-1.516.803h-.013c-1.268-.008-1.78-.783-1.78-.783s.074 1.008-.382 2.369c-.55 1.64.004 2.81.004 2.81s-.296.081-.637.081c-.13 0-.266-.013-.395-.047-1.059-.251-1.323-1.217-1.323-1.217s.098 3.261-3.699 3.261h-.03s.335-.455.434-1.767c.18-2.42 1.816-2.753 1.816-2.753s-.873-.11-1.252-.449c-.591-.537-.55-1.158-.55-1.158 1.336-.019 2.212-.474 2.879-1.247a3.68 3.68 0 00.84-1.739s-.718.653-2.107.653c-.122 0-.252-.006-.386-.019-.658-.053-1.112-.472-1.112-.472 1.446-.929 2.46-2.55 1.561-4.99-.72-1.955-2.452-3.416-4.195-4.516-.58-.363-.904-.767-.904-1.114 0-.817 1.16-.843 1.636-1.392.55-.638.205-1.673-.271-2.296 0 0 .16-.033.413-.033.502 0 1.37.126 2.084.868.947.982.554 2.052.554 2.052l.254.05c.152.031.303.038.46.046l.102.001c1.377 0 1.992-1.442 1.992-1.442s1.464 1.804-.691 3.218c-.371.241-.535.466-.492.704l.034.157.153.027c1.562.425 2.353 1.505 3.318 2.731 1.466 1.867 3.54 1.927 3.795 1.927h.028s-.473 1.497-1.868 1.497c-.023 0-.043 0-.066-.002-.64-.023-.97-.269-.97-.269s-.249 3.397 2.282 4.45zm-1.246-3.721c1.71 0 2.282-1.743 2.306-1.817l.19-.615-.64.02h-.002c-.227 0-2.113-.05-3.45-1.753l-.127-.158c-.874-1.113-1.703-2.172-3.185-2.655a1.51 1.51 0 01.189-.141c.786-.518 1.244-1.147 1.358-1.878.169-1.099-.532-1.975-.562-2.011l-.476-.59-.298.7c-.02.043-.52 1.163-1.572 1.163h-.078c-.072-.003-.141-.006-.209-.012.037-.5-.054-1.272-.754-1.998-.841-.873-1.873-1.004-2.413-1.004-.288 0-.48.036-.501.038l-.719.143.443.585c.348.452.664 1.285.29 1.72-.12.14-.366.251-.601.364-.484.223-1.146.535-1.146 1.326 0 .512.397 1.049 1.117 1.504 2.128 1.341 3.442 2.741 4.009 4.286.878 2.376-.267 3.732-1.38 4.446l-.498.321.437.402c.059.052.592.523 1.381.591.15.01.293.018.427.018.505 0 .936-.08 1.286-.186a3.29 3.29 0 01-.364.514c-.635.738-1.417 1.074-2.542 1.092l-.418.006-.032.42c-.004.085-.035.864.7 1.526.113.102.249.187.392.255-.5.45-1.006 1.234-1.104 2.576-.083 1.12-.35 1.535-.353 1.54l-.462.706.835.011c1.379 0 2.435-.38 3.166-1.136a3.59 3.59 0 00.826-1.399 2.242 2.242 0 001.456.536c.39 0 .716-.083.752-.091l.533-.142-.235-.498c-.018-.04-.462-1.04.016-2.467.206-.617.311-1.169.362-1.6.336.176.785.32 1.366.322 1.32 0 1.901-.987 1.927-1.028l.26-.454-.482-.198c-1.572-.654-1.92-2.41-1.99-3.36.143.027.305.052.488.057l.081.003z" fill="#1A1919"/><path fill-rule="evenodd" clip-rule="evenodd" d="M32.594 10.05c.318 0 .69.109 1.04.472 1.102 1.12 2.127 1.183 2.127 1.183-.186.413-.726.776-1.285.776-.129 0-.26-.02-.387-.065-.759-.256-1.03-1.395-2.361-2.104 0 0 .37-.262.866-.262zm-1.083.666c.637.34 1.009.797 1.335 1.201.32.395.623.775 1.1.933.168.058.347.086.53.086.713 0 1.43-.438 1.702-1.044l.273-.606-.661-.04c-.031 0-.882-.079-1.828-1.047-.39-.398-.861-.606-1.368-.606-.62 0-1.08.31-1.13.342l-.608.429.655.352zM31.81 16.767v.023c-.384-3.102-2.632-5.342-5.135-6.704-.23-.124-.445-.23-.652-.33.761.118 1.988.132 2.936-.69 0 0-1.45 1.067-4.417.097.82.534 2.417 1.288 3.875 2.508 3.643 3.208 1.037 6.336 1.037 6.336 1.31-1.369 1.364-2.835.978-4.033.69 1.15 1.13 2.545 1.062 4.266-.1 2.465-1.453 4.597-2.876 6.31-.684.83-.836 1.852-.836 1.852s.276-.901 1.067-1.828c1.525-1.79 2.83-3.647 3-6.325.158.487.808 1.837 1.838 2.346 0 0-1.295-.782-1.877-3.828zM11.99 28.503c-3.797 0-3.7-3.261-3.7-3.261s-.266.966-1.323 1.217a1.557 1.557 0 01-.395.047c-.34 0-.636-.08-.636-.08s.553-1.172.002-2.811c-.454-1.36-.38-2.369-.38-2.369s-.511.775-1.78.783h-.013c-1.055 0-1.516-.803-1.516-.803 2.53-1.053 2.282-4.45 2.282-4.45s-.33.246-.97.27h-.067c-1.396 0-1.869-1.496-1.869-1.496h.029c.258 0 2.329-.06 3.794-1.927.965-1.227 1.757-2.306 3.316-2.73l.157-.028.033-.157c.044-.238-.12-.463-.49-.704-2.155-1.414-.692-3.217-.692-3.217s.612 1.441 1.993 1.441l.1-.001c.156-.008.309-.015.46-.047l.254-.049s-.394-1.07.556-2.052c.714-.742 1.581-.868 2.082-.868.255 0 .412.033.412.033-.474.623-.818 1.658-.27 2.296.476.549 1.635.575 1.635 1.392 0 .347-.323.751-.902 1.114-1.745 1.1-3.476 2.56-4.196 4.517-.898 2.44.116 4.06 1.563 4.99 0 0-.455.418-1.113.471a4.12 4.12 0 01-.388.019c-1.388 0-2.106-.652-2.106-.652s.12.901.838 1.739c.67.772 1.545 1.227 2.88 1.246 0 0 .043.62-.548 1.158-.379.34-1.252.45-1.252.45s1.637.332 1.817 2.752c.098 1.312.43 1.767.43 1.767h-.027zm.403-.26c-.001-.005-.266-.42-.351-1.54-.1-1.342-.606-2.126-1.107-2.576.145-.068.28-.153.392-.255.735-.662.704-1.44.699-1.526l-.028-.42-.421-.006c-1.122-.018-1.905-.354-2.54-1.092a3.42 3.42 0 01-.364-.514c.35.107.778.186 1.285.186.135 0 .277-.008.426-.018a2.514 2.514 0 001.383-.59l.437-.403-.498-.32c-1.116-.715-2.257-2.07-1.38-4.447.567-1.545 1.878-2.944 4.01-4.286.72-.455 1.114-.992 1.114-1.504 0-.791-.66-1.103-1.144-1.326-.236-.113-.482-.225-.601-.364-.375-.435-.06-1.268.289-1.72l.446-.585-.723-.143c-.02-.003-.21-.038-.5-.038-.539 0-1.57.131-2.41 1.004-.701.726-.793 1.499-.757 1.998-.068.006-.136.009-.208.012h-.077c-1.056 0-1.554-1.12-1.573-1.163l-.297-.7-.48.59c-.027.036-.73.912-.558 2.011.113.73.571 1.36 1.357 1.878.086.055.145.102.188.141-1.484.483-2.311 1.542-3.185 2.655l-.126.158c-1.336 1.703-3.227 1.754-3.453 1.754l-.644-.02.196.614c.023.074.593 1.817 2.304 1.817l.082-.003c.181-.005.344-.03.488-.058-.07.95-.42 2.707-1.992 3.36l-.48.2.26.453c.024.041.608 1.028 1.93 1.028a2.934 2.934 0 001.362-.32c.051.43.157.981.363 1.598.478 1.426.033 2.427.016 2.467l-.236.498.533.141c.036.01.364.092.752.092a2.23 2.23 0 001.456-.536c.145.447.394.952.825 1.399.734.755 1.789 1.136 3.167 1.136l.835-.011-.462-.706z" fill="#1A1919"/><path fill-rule="evenodd" clip-rule="evenodd" d="M4.374 10.522c.352-.363.723-.473 1.043-.473.492 0 .865.263.865.263-1.33.71-1.604 1.848-2.364 2.105a1.143 1.143 0 01-.385.063c-.559 0-1.1-.362-1.284-.775 0 0 1.024-.063 2.125-1.183zm-.841 2.414c.183 0 .362-.028.532-.086.476-.158.78-.537 1.1-.933.327-.403.695-.86 1.333-1.2l.656-.353-.61-.43c-.05-.031-.507-.34-1.127-.34-.508 0-.98.207-1.369.605-.947.969-1.796 1.047-1.827 1.048l-.66.039.27.607c.274.605.99 1.043 1.702 1.043zM6.516 18.24c-.07-1.721.37-3.116 1.06-4.266-.384 1.198-.332 2.664.98 4.034 0 0-2.608-3.13 1.037-6.336 1.458-1.221 3.053-1.975 3.873-2.509-2.966.97-4.415-.098-4.415-.098.947.823 2.174.81 2.935.69-.206.101-.422.206-.652.331-2.503 1.361-4.75 3.602-5.136 6.704v-.023c-.581 3.046-1.875 3.828-1.875 3.828 1.03-.51 1.678-1.86 1.836-2.346.172 2.678 1.476 4.536 3 6.325.792.927 1.07 1.828 1.07 1.828s-.154-1.021-.841-1.852c-1.42-1.713-2.772-3.845-2.872-6.31zM18.147 11.963v.616c.212-.259.62-.206.62-.206v.887s-.013.436-.168.625h.886c-.154-.189-.169-.625-.169-.625v-.887s.41-.053.62.206v-.616h-1.79zM17.767 8.315c.283.225.447.263.452.266l.11.051v-.579l-1.04-.438s.009.336.478.7zM20.241 8.315c.47-.364.48-.7.48-.7l-1.041.438v.58l.11-.052c.005-.003.168-.041.451-.266z" fill="#1A1919"/><path fill-rule="evenodd" clip-rule="evenodd" d="M19.004 6.772l-2.507-.992c.213-.506 1.196-.936 2.507-.937 1.312.001 2.295.431 2.508.937l-2.508.992zm1.869 3.109l-1.685.89V7.167l2.287-.778-.602 3.49zm1.044.956l.77.448h.011l.194.113c-.435.12-.768.339-1.047.625l-.03.03a3.727 3.727 0 00-.189.218l-.035.046c-.06.077-.117.156-.17.238l-.029.041a5.596 5.596 0 00-.185.303c-.55.947-1.425 1.513-2.203 1.515-.778-.002-1.654-.568-2.202-1.515a6.357 6.357 0 00-.183-.298l-.036-.053a6.13 6.13 0 00-.162-.228c-.014-.02-.027-.035-.041-.052a4.387 4.387 0 00-.183-.213c-.013-.01-.022-.023-.034-.034a2.27 2.27 0 00-1.047-.623l.196-.113h.008l.773-.448.791-.455L19 11.536l.004-.004.006.004 2.115-1.154.792.455zm3.04 3.204c-.173.456-.316.95-.316 1.441l.002 3.17c-.661-.11-.74-.824-.742-.855l-.012-.145-.143-.013a1.009 1.009 0 01-.638-.305c-.325-.325-.325-.851-.325-.856-.004.027-.356.52.052 1.06.172.228.422.369.744.424.076.395.37.954 1.064 1.04v1.55h-1.951c-.9-.501-.519-1.383-.501-1.421l.076-.168-.172-.065c-.975-.362-.706-1.336-.693-1.378l.04-.142-.134-.062c-.804-.374-.695-1.38-.684-1.422-.248.201-.337.61-.167 1.013-.092.106-.216.233-.351.373a1.095 1.095 0 01-.86-1.015l-.001-.118-.11-.042c-.325-.12-.548-.302-.659-.545-.123-.269-.08-.55-.046-.687a2.883 2.883 0 00.568.06h.013c.097 0 .192-.006.286-.015.52-.052 1.1-.275 1.706-.877h3.954zm-2.438 13.815l.218-1.137.035-.21a1.207 1.207 0 00.422.083c.332 0 .526-.176.655-.325l.166-.195-.136-.214c-.012-.021-.315-.5-.547-.828a4.455 4.455 0 01-.133-.198c-.265-.396-.596-.893-1.26-.893l-.059.002a.975.975 0 00-.28.057 1.513 1.513 0 00-.647-.148 2.01 2.01 0 00-.659.128c-.044.013-.084.027-.115.033l-1.24-.122c-.016-.004-.066-.034-.128-.106v-.007l.268-.107c-.075-.896-.934-1.447-1.412-1.634a.505.505 0 00-.14-.252l-.266-.253-.234.281-.115.144-1.738-.715 1.13 1.421-.445.677c-.164.173.017.348.017.348l.46.318.478-.179c.016 0 .03.004.047.006-.023.073-.053.358-.073.437l-.829-.163-.87.493c-.449.33-.51.874-.343 1.247l.096.212.137.299.305-.126c.005-.002.009-.003.012-.006-.11.351-.065.684.13.903l.185.233.246.312.27-.291c.08-.08.338-.369.417-.617l.058-.189-.131-.145-.022-.027.148-.245 1.082.256.244.056.13-.215.07-.116c.013-.025.016-.029.066-.029.039 0 .077.004.118.014a6.09 6.09 0 001.12.115c.323 0 .518-.012.748-.089 0 0 .581.66.601.686l-.356 1.1-.016.066c-.673.055-1.001.203-1.398.6-.576-.572-.983-.633-2.53-.633-1.853 0-3.109-1.087-3.109-2.826v-4.248h11.276l.002 4.248c0 1.409-.826 2.392-2.126 2.713zm-6.945-2.402l.059.147c-.04.128-.48.31-.48.31l-.094-.209a.694.694 0 01.227-.826l.713-.435.757.16c-.015.241.129.421.129.421l-.792-.152-.475.328c-.08.056-.086.16-.044.256zm6.825 1.2l-.243 1.271c-.156.022-.32.034-.488.04l.256-1.22c.076-.364-.896-.477-1.377-1.19-.235.264-.676.343-1.12.343-.406 0-.81-.065-1.057-.114a1.16 1.16 0 00-.18-.017c-.143 0-.272.044-.362.195l-.07.12-1.326-.313-.33.547c-.046.089-.05.163.025.246l.09.098c-.062.193-.338.486-.338.486l-.197-.247c-.156-.174-.13-.494.032-.79l.526-.89 1.123.163-.174-.399c-.235-.527.123-1.197.161-1.583-.013.117-.12.143-.244.143-.114 0-.24-.021-.324-.021-.033 0-.062.003-.077.014l-.304.185-.24-.212c-.029-.04-.038-.137.032-.209l.556-.624-.656-.768.918.463.281-.341c.077.076.043.273.043.273.287.008 1.092.453 1.134 1.493.003.032.003.067.003.102l.021.034c.057.079.214.28.413.298l1.27.126h.005c.14 0 .417-.164.772-.164.195 0 .41.05.64.195 0 0 .116-.092.303-.102.014-.002.03-.002.043-.002.57 0 .807.516 1.113.945.23.326.537.81.537.81-.113.135-.219.21-.396.21a.817.817 0 01-.164-.016c-.61-.113-.699-1.37-1.047-1.47a.212.212 0 00-.056-.007c-.112 0-.161.1-.161.1.16.429.066.602.238.933.128.245.355.446.449.542 0 0-.025.186-.053.325zm-1.169 1.32c-.17 0-.328.002-.47.008l.372-1.161c.058-.161-.236-.368-.357-.55.183.116.658.37.887.47a60.773 60.773 0 00-.432 1.233zm-5.532-10.462l.053-2.018.452-.479.284.596-.56 1.937-.23-.035zm.325.626a.799.799 0 00.3.317 3.704 3.704 0 01-.055.572c-.01.044-.02.085-.033.126-.006.026-.014.047-.019.064-.139 0-.41-.017-.631-.098-.246-.09-.613-.542-.528-1.04.106-.065.352-.204.583-.204.177 0 .298.084.383.263zm5.236.542c-.347.257-1.243.912-1.568 1.14l-3.128-.564.022-.083c.04-.163.083-.385.085-.646l2.629.042.05-.05c.04-.04.873-.847 1.297-1.31.101.127.227.247.393.353-.056.31-.033.748.22 1.118zm-4.253-4.639c.377.374.744.607 1.094.735-.045.18-.105.554.063.925.138.3.388.53.749.684.04.37.273.927.92 1.173-.284.286-.56.556-.67.664l-2.624-.041a.47.47 0 01-.206-.192c-.005-.013-.014-.02-.02-.034l.429.07.027.001a.169.169 0 00.168-.142.172.172 0 00-.141-.197l-.527-.084.584-2.021-.553-1.167-.887.94-.054 2.101-.596-.095c-.092-.018-.18.05-.197.143a.174.174 0 00.143.197l.25.038c-.09.051-.149.092-.156.097l-.05.036-.014.062c-.145.59.183 1.15.537 1.4l-.013.075c-.014.09.006.18.06.253a.33.33 0 00.275.142.336.336 0 00.325-.262c.132.015.253.019.335.019h.071l3.441.623.059-.039c.274-.192 1.32-.955 1.662-1.208.095.081.2.155.327.216-.111.373-.118.946.32 1.4h-8.77v-5.07c0-.492-.143-.986-.313-1.442h3.952zm-.474-7.65l2.289.777v3.602l-1.685-.89-.604-3.49zm5.584-.435c0-.879-1.477-1.67-3.107-1.67h-.01c-1.63 0-3.106.791-3.106 1.67l.032.216.651 3.743-.654.38-1.691.99h.006s-.38.196-.557.316c-.644.448-.781 1.102-.407 1.372.092-.533.513-1.09 1.3-1.09.568 0 1 .294 1.35.733.09.111.175.23.254.357.098.161.197.303.294.439h-4.358c.32.645.625 1.328.625 2.07v9.662c0 2.338 1.795 3.454 3.737 3.454 1.501 0 1.703-.068 2.531.758.824-.826 1.027-.758 2.529-.758 1.943 0 3.735-1.116 3.735-3.454v-9.662c0-.742.305-1.425.627-2.07h-4.36c.098-.136.196-.278.294-.439.08-.127.165-.246.253-.357.352-.441.784-.733 1.352-.733.787 0 1.207.557 1.3 1.09.374-.27.239-.924-.41-1.372-.172-.12-.554-.316-.554-.316h.007l-1.695-.99-.65-.38.65-3.743.032-.216z" fill="#1A1919"/><path d="M50.12 22.06h3v-6.98h4.12v-2.54H46v2.54h4.12v6.98zM66.34 12.54l-5 5.54v-5.54h-2.9v9.52H61l5-5.54v5.54h2.9v-9.52h-2.56zM73.997 18.52h4.66v3.54h2.9v-9.52h-2.9v3.48h-4.66v-3.48h-2.9v9.52h2.9v-3.54zM89.633 22.06c.66 0 1.26-.06 1.82-.22 1.5-.42 2.48-1.64 2.48-3.3 0-1.58-.84-2.68-2.18-3.18-.64-.24-1.4-.26-2.12-.26h-2.98v-2.56h-2.9v9.52h5.88zm-2.98-4.72h2.48c.4 0 .78 0 1.12.12.48.16.76.56.76 1.04 0 .5-.28.92-.74 1.12-.32.14-.64.14-1.14.14h-2.48v-2.42zM98.333 18.46h.8l3.46 3.6h3.86l-4.82-4.96 4.64-4.56h-3.64l-3.5 3.58h-.8v-3.58h-2.9v9.52h2.9v-3.6z" fill="#000"/><path d="M112.42 12.28c-3.9 0-6.24 2.2-6.24 5.04s2.34 5.04 6.24 5.04c3.88 0 6.22-2.2 6.22-5.04s-2.34-5.04-6.22-5.04zm0 7.76c-1.94 0-3.18-1.16-3.18-2.72 0-1.56 1.24-2.7 3.18-2.7 1.92 0 3.18 1.14 3.18 2.7 0 1.56-1.26 2.72-3.18 2.72zM128.298 12.96V12h-2.9v.96c-3.64.08-5.82 1.62-5.82 4.34 0 2.72 2.18 4.14 5.82 4.22v.96h2.9v-.96c3.66-.08 5.84-1.5 5.84-4.22 0-2.72-2.18-4.26-5.84-4.34zm-2.9 6.52c-2-.08-2.88-.9-2.88-2.18 0-1.28.88-2.2 2.88-2.28v4.46zm2.9 0v-4.46c2.02.08 2.88 1 2.88 2.28 0 1.28-.86 2.1-2.88 2.18zM143.786 12.96V12h-2.9v.96c-3.64.08-5.82 1.62-5.82 4.34 0 2.72 2.18 4.14 5.82 4.22v.96h2.9v-.96c3.66-.08 5.84-1.5 5.84-4.22 0-2.72-2.18-4.26-5.84-4.34zm-2.9 6.52c-2-.08-2.88-.9-2.88-2.18 0-1.28.88-2.2 2.88-2.28v4.46zm2.9 0v-4.46c2.02.08 2.88 1 2.88 2.28 0 1.28-.86 2.1-2.88 2.18z" fill="#000"/></svg>